<svg width="14" height="14" viewBox="0 0 14 14" fill="none" xmlns="http://www.w3.org/2000/svg">
<path d="M6.33337 4.99992H7.66671V3.66658H6.33337M7.00004 12.3333C4.06004 12.3333 1.66671 9.93992 1.66671 6.99992C1.66671 4.05992 4.06004 1.66659 7.00004 1.66659C9.94004 1.66659 12.3334 4.05992 12.3334 6.99992C12.3334 9.93992 9.94004 12.3333 7.00004 12.3333ZM7.00004 0.333252C6.12456 0.333252 5.25765 0.50569 4.44882 0.840722C3.63998 1.17575 2.90505 1.66682 2.286 2.28587C1.03575 3.53612 0.333374 5.23181 0.333374 6.99992C0.333374 8.76803 1.03575 10.4637 2.286 11.714C2.90505 12.333 3.63998 12.8241 4.44882 13.1591C5.25765 13.4941 6.12456 13.6666 7.00004 13.6666C8.76815 13.6666 10.4638 12.9642 11.7141 11.714C12.9643 10.4637 13.6667 8.76803 13.6667 6.99992C13.6667 6.12444 13.4943 5.25753 13.1592 4.4487C12.8242 3.63986 12.3331 2.90493 11.7141 2.28587C11.095 1.66682 10.3601 1.17575 9.55126 0.840722C8.74243 0.50569 7.87552 0.333252 7.00004 0.333252ZM6.33337 10.3333H7.66671V6.33325H6.33337V10.3333Z" fill="#201F1D"/>
</svg>
