<svg width="24" height="24" viewBox="0 0 24 24" fill="none" xmlns="http://www.w3.org/2000/svg">
<path d="M13.4211 6.38024C13.542 6.38024 13.6123 6.29967 13.632 6.1891C13.9436 4.52195 13.9337 4.48167 15.6711 4.14053C15.7916 4.11995 15.8623 4.05995 15.8623 3.9391C15.8623 3.80881 15.7916 3.74838 15.6711 3.72824C13.9337 3.37681 13.944 3.34681 13.632 1.67924C13.6123 1.56867 13.542 1.48853 13.4211 1.48853C13.3011 1.48853 13.2403 1.56867 13.2206 1.67924C12.8991 3.34638 12.9188 3.37638 11.1711 3.72824C11.0606 3.74838 10.9804 3.80881 10.9804 3.9391C10.9804 4.05995 11.061 4.11995 11.1711 4.14053C12.9291 4.48167 12.8991 4.52195 13.2206 6.1891C13.2403 6.29967 13.3007 6.38024 13.4211 6.38024ZM18.2327 13.1701C18.4136 13.1701 18.5438 13.0398 18.564 12.8487C18.8957 10.147 19.0058 10.1067 21.7483 9.65453C21.9694 9.61467 22.0997 9.51395 22.0997 9.31295C22.0997 9.12224 21.9694 9.00181 21.7886 8.97181C19.0058 8.49953 18.8957 8.47938 18.564 5.77724C18.5438 5.58653 18.4136 5.45581 18.2327 5.45581C18.0416 5.45581 17.9113 5.58652 17.8911 5.76738C17.5397 8.46952 17.4591 8.49953 14.667 8.97181C14.4861 9.00181 14.3554 9.12224 14.3554 9.31295C14.3554 9.50367 14.4861 9.61467 14.667 9.65453C17.4591 10.1067 17.5598 10.147 17.8911 12.8688C17.8989 12.9531 17.9387 13.0312 18.0021 13.0872C18.0656 13.1432 18.1481 13.1729 18.2327 13.1701ZM10.6791 22.5121C14.3554 22.5121 17.3288 20.6641 18.6848 17.5201C18.8653 17.0881 18.8048 16.7568 18.6146 16.5558C18.4337 16.3852 18.1324 16.345 17.7703 16.4855C17.0173 16.7868 16.0933 16.9574 14.9378 16.9574C10.4481 16.9574 7.55527 14.155 7.55527 9.74538C7.55527 8.52995 7.78627 7.32481 8.09741 6.69181C8.29884 6.29024 8.27827 5.94867 8.1077 5.73781C7.91698 5.51667 7.57541 5.44638 7.10313 5.6371C4.01955 6.89281 1.90027 10.1071 1.90027 13.864C1.90027 18.7557 5.49598 22.5121 10.6791 22.5121ZM10.6993 20.986C6.41013 20.986 3.42684 17.8617 3.42684 13.7435C3.42684 11.2124 4.60198 8.98253 6.47055 7.55624C6.22927 8.20895 6.0887 9.21353 6.0887 10.1778C6.0887 15.1197 9.50398 18.4347 14.5564 18.4347C15.4607 18.4347 16.284 18.3241 16.7057 18.1732C15.45 19.9111 13.2103 20.986 10.6993 20.986Z" fill="#0C4A6E"/>
</svg>
