<svg width="13" height="15" viewBox="0 0 13 15" fill="none" xmlns="http://www.w3.org/2000/svg">
<path d="M6.49984 0C5.98622 0 5.57127 0.418945 5.57127 0.9375V1.5C3.45296 1.93359 1.85698 3.82617 1.85698 6.09375V6.83789C1.85698 8.16797 1.40721 9.45996 0.586 10.4971L0.153634 11.0449C-0.0146695 11.2559 -0.0465892 11.5459 0.0694823 11.7891C0.185554 12.0322 0.429304 12.1875 0.696268 12.1875H12.3034C12.5704 12.1875 12.8141 12.0322 12.9302 11.7891C13.0463 11.5459 13.0143 11.2559 12.846 11.0449L12.4137 10.5C11.5925 9.45996 11.1427 8.16797 11.1427 6.83789V6.09375C11.1427 3.82617 9.54671 1.93359 7.42841 1.5V0.9375C7.42841 0.418945 7.01346 0 6.49984 0ZM6.49984 2.8125C8.29604 2.8125 9.74984 4.28027 9.74984 6.09375V6.83789C9.74984 8.24121 10.1532 9.60938 10.9018 10.7812H2.09783C2.84649 9.60938 3.24984 8.24121 3.24984 6.83789V6.09375C3.24984 4.28027 4.70363 2.8125 6.49984 2.8125ZM8.35698 13.125H4.6427C4.6427 13.623 4.83712 14.1006 5.18533 14.4521C5.53354 14.8037 6.00654 15 6.49984 15C6.99314 15 7.46613 14.8037 7.81435 14.4521C8.16256 14.1006 8.35698 13.623 8.35698 13.125Z" fill="#D4A017"/>
</svg>
