<svg width="15" height="15" viewBox="0 0 15 15" fill="none" xmlns="http://www.w3.org/2000/svg">
<path d="M14.74 13.3067L1.59332 0.15332L0.73999 0.999987L3.88666 4.14665C3.52619 4.81933 3.33619 5.57015 3.33332 6.33332V10.3333L1.99999 11.6667V12.3333H12.0733L13.8933 14.1533L14.74 13.3067ZM4.66666 11V6.33332C4.66666 5.92665 4.73999 5.52665 4.89332 5.15332L10.74 11H4.66666ZM6.66666 13H9.33332C9.33332 13.3536 9.19285 13.6927 8.9428 13.9428C8.69275 14.1928 8.35361 14.3333 7.99999 14.3333C7.64637 14.3333 7.30723 14.1928 7.05718 13.9428C6.80713 13.6927 6.66666 13.3536 6.66666 13ZM5.52666 2.39332C5.87999 2.16665 6.26666 1.99999 6.66666 1.85999V1.66665C6.66666 1.31303 6.80713 0.973893 7.05718 0.723845C7.30723 0.473796 7.64637 0.33332 7.99999 0.33332C8.35361 0.33332 8.69275 0.473796 8.9428 0.723845C9.19285 0.973893 9.33332 1.31303 9.33332 1.66665V1.85999C11.3133 2.44665 12.6667 4.26665 12.6667 6.33332V9.53332L11.3333 8.19999V6.33332C11.3333 5.44927 10.9821 4.60142 10.357 3.9763C9.73189 3.35118 8.88405 2.99999 7.99999 2.99999C7.47999 2.99999 6.96666 3.13332 6.50666 3.37332L5.52666 2.39332Z" fill="#D4A017"/>
</svg>
