<svg width="16" height="12" viewBox="0 0 16 12" fill="none" xmlns="http://www.w3.org/2000/svg">
<path d="M14.2222 0.666656H1.77777C1.54203 0.666656 1.31593 0.760307 1.14923 0.927006C0.982536 1.0937 0.888885 1.3198 0.888885 1.55555V10.4444C0.888885 10.6802 0.982536 10.9063 1.14923 11.073C1.31593 11.2397 1.54203 11.3333 1.77777 11.3333H14.2222C14.458 11.3333 14.6841 11.2397 14.8508 11.073C15.0175 10.9063 15.1111 10.6802 15.1111 10.4444V1.55555C15.1111 1.3198 15.0175 1.0937 14.8508 0.927006C14.6841 0.760307 14.458 0.666656 14.2222 0.666656ZM13.5378 10.4444H2.51555L5.62666 7.22666L4.98666 6.60888L1.77777 9.92888V2.2311L7.30222 7.72888C7.46876 7.89443 7.69405 7.98736 7.92889 7.98736C8.16372 7.98736 8.38901 7.89443 8.55555 7.72888L14.2222 2.09332V9.8711L10.9511 6.59999L10.3244 7.22666L13.5378 10.4444ZM2.36 1.55555H13.5022L7.92889 7.09777L2.36 1.55555Z" fill="black"/>
</svg>
