<svg width="26" height="24" viewBox="0 0 26 24" fill="none" xmlns="http://www.w3.org/2000/svg">
<path d="M24.25 17.75C24.5152 17.75 24.7695 17.8554 24.957 18.043C25.1446 18.2305 25.25 18.4848 25.25 18.75C25.25 19.0152 25.1446 19.2695 24.957 19.457C24.7695 19.6446 24.5152 19.75 24.25 19.75H1.75C1.48478 19.75 1.23051 19.6446 1.04297 19.457C0.855432 19.2695 0.75 19.0152 0.75 18.75C0.75 18.4848 0.855433 18.2305 1.04297 18.043C1.23051 17.8554 1.48478 17.75 1.75 17.75H24.25ZM13 7.9873C15.1228 7.9873 17.1687 8.78152 18.7354 10.2139C20.302 11.6463 21.2761 13.6132 21.4658 15.7275L21.4902 16H19.4854L19.4609 15.7773C19.2859 14.1863 18.53 12.7157 17.3379 11.6475C16.1457 10.5792 14.6008 9.98828 13 9.98828C11.3992 9.98828 9.85435 10.5792 8.66211 11.6475C7.47003 12.7157 6.71415 14.1863 6.53906 15.7773L6.51465 16H4.50977L4.53418 15.7275C4.72389 13.6132 5.69796 11.6463 7.26465 10.2139C8.83134 8.78152 10.8772 7.9873 13 7.9873ZM3.98438 6.48438C4.24949 6.48441 4.50391 6.5899 4.69141 6.77734L6.27832 8.36426L6.3457 8.43652C6.4099 8.51216 6.46261 8.597 6.50195 8.68848C6.55436 8.81048 6.58185 8.94242 6.58301 9.0752C6.58411 9.20779 6.55899 9.33918 6.50879 9.46191C6.45851 9.58481 6.38491 9.69712 6.29102 9.79102C6.19712 9.88491 6.08481 9.95851 5.96191 10.0088C5.83918 10.059 5.70779 10.0841 5.5752 10.083C5.44241 10.0819 5.31048 10.0544 5.18848 10.002C5.06794 9.95012 4.95873 9.87522 4.86719 9.78125L3.27734 8.19141C3.0899 8.00391 2.98441 7.74949 2.98438 7.48438C2.98438 7.21921 3.08987 6.96487 3.27734 6.77734C3.46487 6.58987 3.71921 6.48438 3.98438 6.48438ZM22.0156 6.48438C22.2808 6.48438 22.5351 6.58987 22.7227 6.77734C22.9101 6.96487 23.0156 7.21921 23.0156 7.48438C23.0156 7.74949 22.9101 8.00391 22.7227 8.19141L21.1328 9.78125C21.0413 9.87522 20.9321 9.95012 20.8115 10.002C20.6895 10.0544 20.5576 10.0819 20.4248 10.083C20.2922 10.0841 20.1608 10.059 20.0381 10.0088C19.9152 9.95851 19.8029 9.88491 19.709 9.79102C19.6151 9.69712 19.5415 9.58481 19.4912 9.46191C19.441 9.33918 19.4159 9.20779 19.417 9.0752C19.4181 8.94242 19.4456 8.81048 19.498 8.68848C19.5504 8.56667 19.6263 8.45639 19.7217 8.36426L21.3086 6.77734C21.4961 6.5899 21.7505 6.48441 22.0156 6.48438ZM13 2.75C13.2652 2.75 13.5195 2.85543 13.707 3.04297C13.8946 3.23051 14 3.48478 14 3.75V6C14 6.26522 13.8946 6.51949 13.707 6.70703C13.5195 6.89457 13.2652 7 13 7C12.7348 7 12.4805 6.89457 12.293 6.70703C12.1054 6.51949 12 6.26522 12 6V3.75C12 3.48478 12.1054 3.23051 12.293 3.04297C12.4805 2.85543 12.7348 2.75 13 2.75Z" fill="#0C4A6E" stroke="#0C4A6E" stroke-width="0.5"/>
</svg>
