<svg width="20" height="18" viewBox="0 0 20 18" fill="none" xmlns="http://www.w3.org/2000/svg">
<path d="M9 12C10.302 12 11.4014 12.839 11.8154 14H19C19.553 14 20 14.447 20 15C20 15.553 19.553 16 19 16H11.8154C11.4014 17.161 10.302 18 9 18C7.698 18 6.59857 17.161 6.18457 16H1C0.447 16 0 15.553 0 15C0 14.447 0.447 14 1 14H6.18457C6.59857 12.839 7.698 12 9 12ZM17 6C18.654 6 20 7.346 20 9C20 10.654 18.654 12 17 12C15.698 12 14.5986 11.161 14.1846 10H1C0.447 10 0 9.553 0 9C0 8.447 0.447 8 1 8H14.1846C14.5986 6.839 15.698 6 17 6ZM5 0C6.302 0 7.40143 0.839 7.81543 2H19C19.553 2 20 2.447 20 3C20 3.553 19.553 4 19 4H7.81543C7.40143 5.161 6.302 6 5 6C3.698 6 2.59857 5.161 2.18457 4H1C0.447 4 0 3.553 0 3C1.2848e-07 2.447 0.447 2 1 2H2.18457C2.59857 0.839 3.698 0 5 0Z" fill="#D4A017"/>
</svg>
