<svg width="19" height="19" viewBox="0 0 19 19" fill="none" xmlns="http://www.w3.org/2000/svg">
<path d="M9.5 18.5C7.4 18.5 5.54167 17.8627 3.925 16.588C2.30833 15.3133 1.25833 13.684 0.775 11.7C0.708333 11.45 0.758333 11.221 0.925 11.013C1.09167 10.805 1.31667 10.684 1.6 10.65C1.86667 10.6167 2.10833 10.6667 2.325 10.8C2.54167 10.9333 2.69167 11.1333 2.775 11.4C3.175 12.9 4 14.125 5.25 15.075C6.5 16.025 7.91667 16.5 9.5 16.5C11.45 16.5 13.1043 15.821 14.463 14.463C15.8217 13.105 16.5007 11.4507 16.5 9.5C16.4993 7.54933 15.8203 5.89533 14.463 4.538C13.1057 3.18067 11.4513 2.50133 9.5 2.5C8.35 2.5 7.275 2.76667 6.275 3.3C5.275 3.83333 4.43333 4.56667 3.75 5.5H5.5C5.78333 5.5 6.021 5.596 6.213 5.788C6.405 5.98 6.50067 6.21733 6.5 6.5C6.49933 6.78267 6.40333 7.02033 6.212 7.213C6.02067 7.40567 5.78333 7.50133 5.5 7.5H1.5C1.21667 7.5 0.979333 7.404 0.788 7.212C0.596667 7.02 0.500667 6.78267 0.5 6.5V2.5C0.5 2.21667 0.596 1.97933 0.788 1.788C0.98 1.59667 1.21733 1.50067 1.5 1.5C1.78267 1.49933 2.02033 1.59533 2.213 1.788C2.40567 1.98067 2.50133 2.218 2.5 2.5V3.85C3.35 2.78333 4.38767 1.95833 5.613 1.375C6.83833 0.791667 8.134 0.5 9.5 0.5C10.75 0.5 11.921 0.737667 13.013 1.213C14.105 1.68833 15.055 2.32967 15.863 3.137C16.671 3.94433 17.3127 4.89433 17.788 5.987C18.2633 7.07967 18.5007 8.25067 18.5 9.5C18.4993 10.7493 18.262 11.9203 17.788 13.013C17.314 14.1057 16.6723 15.0557 15.863 15.863C15.0537 16.6703 14.1037 17.312 13.013 17.788C11.9223 18.264 10.7513 18.5013 9.5 18.5ZM10.5 9.1L13 11.6C13.1833 11.7833 13.275 12.0167 13.275 12.3C13.275 12.5833 13.1833 12.8167 13 13C12.8167 13.1833 12.5833 13.275 12.3 13.275C12.0167 13.275 11.7833 13.1833 11.6 13L8.8 10.2C8.7 10.1 8.625 9.98767 8.575 9.863C8.525 9.73833 8.5 9.609 8.5 9.475V5.5C8.5 5.21667 8.596 4.97933 8.788 4.788C8.98 4.59667 9.21733 4.50067 9.5 4.5C9.78267 4.49933 10.0203 4.59533 10.213 4.788C10.4057 4.98067 10.5013 5.218 10.5 5.5V9.1Z" fill="#888888"/>
</svg>
