<svg width="23" height="19" viewBox="0 0 23 19" fill="none" xmlns="http://www.w3.org/2000/svg">
<path d="M20.5 10.6875C20.174 10.6871 19.8526 10.7646 19.5625 10.9134V10.5C19.5625 6.68344 16.8147 4.85437 14.6059 3.38437C13.2409 2.47594 12.0625 1.6875 12.0625 0.75C12.0625 0.600816 12.0032 0.457742 11.8977 0.352252C11.7923 0.246763 11.6492 0.1875 11.5 0.1875C11.3508 0.1875 11.2077 0.246763 11.1023 0.352252C10.9968 0.457742 10.9375 0.600816 10.9375 0.75C10.9375 1.6875 9.75906 2.47594 8.39406 3.38437C6.18531 4.85437 3.4375 6.68344 3.4375 10.5V10.9134C3.12311 10.753 2.77282 10.6759 2.42013 10.6896C2.06744 10.7033 1.72416 10.8072 1.42313 10.9915C1.12211 11.1758 0.873409 11.4342 0.700837 11.7421C0.528266 12.05 0.437595 12.397 0.4375 12.75V18C0.4375 18.1492 0.496763 18.2923 0.602252 18.3977C0.707742 18.5032 0.850816 18.5625 1 18.5625H7C7.14918 18.5625 7.29226 18.5032 7.39775 18.3977C7.50324 18.2923 7.5625 18.1492 7.5625 18V15C7.5625 14.7514 7.66127 14.5129 7.83709 14.3371C8.0129 14.1613 8.25136 14.0625 8.5 14.0625C8.74864 14.0625 8.9871 14.1613 9.16291 14.3371C9.33873 14.5129 9.4375 14.7514 9.4375 15V18C9.4375 18.1492 9.49676 18.2923 9.60225 18.3977C9.70774 18.5032 9.85082 18.5625 10 18.5625H13C13.1492 18.5625 13.2923 18.5032 13.3977 18.3977C13.5032 18.2923 13.5625 18.1492 13.5625 18V15C13.5625 14.7514 13.6613 14.5129 13.8371 14.3371C14.0129 14.1613 14.2514 14.0625 14.5 14.0625C14.7486 14.0625 14.9871 14.1613 15.1629 14.3371C15.3387 14.5129 15.4375 14.7514 15.4375 15V18C15.4375 18.1492 15.4968 18.2923 15.6023 18.3977C15.7077 18.5032 15.8508 18.5625 16 18.5625H22C22.1492 18.5625 22.2923 18.5032 22.3977 18.3977C22.5032 18.2923 22.5625 18.1492 22.5625 18V12.75C22.5625 12.203 22.3452 11.6784 21.9584 11.2916C21.5716 10.9048 21.047 10.6875 20.5 10.6875ZM9.0175 4.32094C9.98969 3.67406 10.9281 3.04969 11.5 2.29875C12.0719 3.04875 13.0103 3.67406 13.9825 4.32094C15.9447 5.625 18.1562 7.09781 18.4122 9.9375H4.58781C4.84375 7.09781 7.05531 5.625 9.0175 4.32094ZM1.5625 12.75C1.5625 12.5014 1.66127 12.2629 1.83709 12.0871C2.0129 11.9113 2.25136 11.8125 2.5 11.8125C2.74864 11.8125 2.9871 11.9113 3.16291 12.0871C3.33873 12.2629 3.4375 12.5014 3.4375 12.75V17.4375H1.5625V12.75ZM14.5 12.9375C13.953 12.9375 13.4284 13.1548 13.0416 13.5416C12.6548 13.9284 12.4375 14.453 12.4375 15V17.4375H10.5625V15C10.5625 14.453 10.3452 13.9284 9.95841 13.5416C9.57161 13.1548 9.04701 12.9375 8.5 12.9375C7.95299 12.9375 7.42839 13.1548 7.04159 13.5416C6.6548 13.9284 6.4375 14.453 6.4375 15V17.4375H4.5625V11.0625H18.4375V17.4375H16.5625V15C16.5625 14.453 16.3452 13.9284 15.9584 13.5416C15.5716 13.1548 15.047 12.9375 14.5 12.9375ZM21.4375 17.4375H19.5625V12.75C19.5625 12.5014 19.6613 12.2629 19.8371 12.0871C20.0129 11.9113 20.2514 11.8125 20.5 11.8125C20.7486 11.8125 20.9871 11.9113 21.1629 12.0871C21.3387 12.2629 21.4375 12.5014 21.4375 12.75V17.4375Z" fill="#0C4A6E"/>
</svg>
