<svg width="22" height="21" viewBox="0 0 22 21" fill="none" xmlns="http://www.w3.org/2000/svg">
<path d="M16.478 10.9999H16.5C17.0909 10.9999 17.6761 11.1163 18.2221 11.3425C18.768 11.5686 19.2641 11.9001 19.682 12.3179C20.0998 12.7358 20.4313 13.2319 20.6575 13.7778C20.8836 14.3238 21 14.909 21 15.4999C21 16.0909 20.8836 16.676 20.6575 17.222C20.4313 17.768 20.0998 18.264 19.682 18.6819C19.2641 19.0998 18.768 19.4312 18.2221 19.6574C17.6761 19.8835 17.0909 19.9999 16.5 19.9999H6C4.71535 20.0002 3.47988 19.5059 2.54984 18.6197C1.6198 17.7335 1.06654 16.5234 1.00481 15.2402C0.943071 13.957 1.3776 12.6993 2.21827 11.7279C3.05894 10.7565 4.24125 10.146 5.52 10.0229M16.478 10.9999C16.492 10.8353 16.4993 10.6686 16.5 10.4999C16.5022 9.0811 15.956 7.71632 14.9755 6.69076C13.9951 5.66521 12.6562 5.05822 11.2387 4.99664C9.82123 4.93506 8.43478 5.42365 7.36907 6.36032C6.30337 7.29698 5.64087 8.60925 5.52 10.0229M16.478 10.9999C16.3773 12.1014 15.9469 13.1468 15.243 13.9999M5.52 10.0229C5.678 10.0076 5.838 9.99992 6 9.99992C7.126 9.99992 8.165 10.3719 9 10.9999" stroke="#0C4A6E" stroke-width="1.5" stroke-linecap="round" stroke-linejoin="round"/>
<path d="M9.99998 4.53C9.90355 4.03437 9.72618 3.558 9.47498 3.12C8.88843 2.08689 7.91951 1.32555 6.77698 1C6.86347 1.69404 6.74478 2.39821 6.43556 3.02554C6.12633 3.65288 5.64012 4.1759 5.03698 4.53C4.43656 4.88058 3.74544 5.04467 3.05151 5.0014C2.35758 4.95813 1.6922 4.70946 1.13998 4.287C0.846718 5.44479 1.01527 6.67124 1.60998 7.707C2.00121 8.39602 2.56632 8.97038 3.24891 9.37274C3.93149 9.7751 4.70768 9.99138 5.49998 10" stroke="#0C4A6E" stroke-width="1.5" stroke-linejoin="round"/>
</svg>
