<svg width="14" height="15" viewBox="0 0 14 15" fill="none" xmlns="http://www.w3.org/2000/svg">
<path d="M7.68057 3.26114C7.76114 3.26114 7.808 3.20743 7.82114 3.13371C8.02886 2.02229 8.02229 1.99543 9.18057 1.768C9.26086 1.75429 9.308 1.71429 9.308 1.63371C9.308 1.54686 9.26086 1.50657 9.18057 1.49314C8.02229 1.25886 8.02914 1.23886 7.82114 0.127143C7.808 0.0534286 7.76114 0 7.68057 0C7.60057 0 7.56 0.0534286 7.54686 0.127143C7.33257 1.23857 7.34571 1.25857 6.18057 1.49314C6.10686 1.50657 6.05343 1.54686 6.05343 1.63371C6.05343 1.71429 6.10714 1.75429 6.18057 1.768C7.35257 1.99543 7.33257 2.02229 7.54686 3.13371C7.56 3.20743 7.60029 3.26114 7.68057 3.26114ZM10.8883 7.78771C11.0089 7.78771 11.0957 7.70086 11.1091 7.57343C11.3303 5.77229 11.4037 5.74543 13.232 5.444C13.3794 5.41743 13.4663 5.35029 13.4663 5.21629C13.4663 5.08914 13.3794 5.00886 13.2589 4.98886C11.4037 4.674 11.3303 4.66057 11.1091 2.85914C11.0957 2.732 11.0089 2.64486 10.8883 2.64486C10.7609 2.64486 10.674 2.732 10.6606 2.85257C10.4263 4.654 10.3726 4.674 8.51114 4.98886C8.39057 5.00886 8.30343 5.08914 8.30343 5.21629C8.30343 5.34343 8.39057 5.41743 8.51114 5.444C10.3726 5.74543 10.4397 5.77229 10.6606 7.58686C10.6658 7.64305 10.6923 7.69513 10.7346 7.73246C10.7769 7.76979 10.8319 7.78956 10.8883 7.78771ZM5.85257 14.0157C8.30343 14.0157 10.2857 12.7837 11.1897 10.6877C11.31 10.3997 11.2697 10.1789 11.1429 10.0449C11.0223 9.93114 10.8214 9.90429 10.58 9.998C10.078 10.1989 9.462 10.3126 8.69171 10.3126C5.69857 10.3126 3.77 8.44429 3.77 5.50457C3.77 4.69429 3.924 3.89086 4.13143 3.46886C4.26571 3.20114 4.252 2.97343 4.13829 2.83286C4.01114 2.68543 3.78343 2.63857 3.46857 2.76571C1.41286 3.60286 0 5.74571 0 8.25029C0 11.5114 2.39714 14.0157 5.85257 14.0157ZM5.866 12.9983C3.00657 12.9983 1.01771 10.9154 1.01771 8.17C1.01771 6.48257 1.80114 4.996 3.04686 4.04514C2.886 4.48029 2.79229 5.15 2.79229 5.79286C2.79229 9.08743 5.06914 11.2974 8.43743 11.2974C9.04029 11.2974 9.58914 11.2237 9.87028 11.1231C9.03314 12.2817 7.54 12.9983 5.866 12.9983Z" fill="#FFF8E9"/>
</svg>
