<svg width="16" height="16" viewBox="0 0 16 16" fill="none" xmlns="http://www.w3.org/2000/svg">
<path d="M4.63333 5.36668C4.4 5.36668 4.23622 5.31935 4.142 5.22468C4.04778 5.13002 4.00044 4.96624 4 4.73335C4 4.28891 4.10556 3.87779 4.31667 3.50002C4.52778 3.12224 4.81111 2.81113 5.16667 2.56668L7.25 1.16668C7.47222 1.01113 7.72222 0.93335 8 0.93335C8.27778 0.93335 8.52778 1.01113 8.75 1.16668L10.8333 2.56668C11.1889 2.81113 11.4722 3.12224 11.6833 3.50002C11.8944 3.87779 12 4.28891 12 4.73335C12 4.96668 11.9527 5.13068 11.858 5.22535C11.7633 5.32002 11.5996 5.36713 11.3667 5.36668H4.63333ZM0.666667 12.6667V5.81668C0.466667 5.69446 0.305556 5.53624 0.183333 5.34202C0.0611111 5.14779 0 4.92268 0 4.66668C0 4.41068 0.133333 4.09957 0.4 3.73335C0.666667 3.36713 0.977778 3.01157 1.33333 2.66668C1.68889 3.01113 2 3.36668 2.26667 3.73335C2.53333 4.10002 2.66667 4.41113 2.66667 4.66668C2.66667 4.92224 2.60556 5.14735 2.48333 5.34202C2.36111 5.53668 2.2 5.69468 2 5.81602V8.66668H3.33333V7.33335C3.33333 7.05557 3.42222 6.78891 3.6 6.53335C3.77778 6.27779 4.03333 6.11113 4.36667 6.03335H11.6333C11.9667 6.11113 12.2222 6.27779 12.4 6.53335C12.5778 6.78891 12.6667 7.05557 12.6667 7.33335V8.66668H14V5.81668C13.8 5.69446 13.6389 5.53624 13.5167 5.34202C13.3944 5.14779 13.3333 4.92268 13.3333 4.66668C13.3333 4.41068 13.4667 4.09957 13.7333 3.73335C14 3.36713 14.3111 3.01157 14.6667 2.66668C15.0222 3.01113 15.3333 3.36668 15.6 3.73335C15.8667 4.10002 16 4.41113 16 4.66668C16 4.92224 15.9389 5.14735 15.8167 5.34202C15.6944 5.53668 15.5333 5.69491 15.3333 5.81668V12.6667C15.3333 13.0333 15.2029 13.3474 14.942 13.6087C14.6811 13.87 14.3671 14.0005 14 14H10C9.81111 14 9.65289 13.936 9.52533 13.808C9.39778 13.68 9.33378 13.5218 9.33333 13.3334V11.3334C9.33333 10.9667 9.20289 10.6529 8.942 10.392C8.68111 10.1311 8.36711 10.0005 8 10C7.63289 9.99957 7.31911 10.1302 7.05867 10.392C6.79822 10.6538 6.66756 10.9676 6.66667 11.3334V13.3334C6.66667 13.5222 6.60267 13.6807 6.47467 13.8087C6.34667 13.9367 6.18844 14.0005 6 14H2C1.63333 14 1.31956 13.8696 1.05867 13.6087C0.797778 13.3478 0.667111 13.0338 0.666667 12.6667Z" fill="#D4A017"/>
</svg>
