<svg width="30" height="30" viewBox="0 0 30 30" fill="none" xmlns="http://www.w3.org/2000/svg">
<path fill-rule="evenodd" clip-rule="evenodd" d="M27 15C27 16.5759 26.6896 18.1363 26.0865 19.5922C25.4835 21.0481 24.5996 22.371 23.4853 23.4853C22.371 24.5996 21.0481 25.4835 19.5922 26.0866C18.1363 26.6896 16.5759 27 15 27C13.4241 27 11.8637 26.6896 10.4078 26.0866C8.95188 25.4835 7.62901 24.5996 6.51471 23.4853C5.40041 22.371 4.51649 21.0481 3.91343 19.5922C3.31038 18.1363 2.99999 16.5759 2.99999 15C2.99999 11.8174 4.26427 8.76516 6.51471 6.51472C8.76515 4.26429 11.8174 3 15 3C18.1826 3 21.2348 4.26429 23.4853 6.51472C25.7357 8.76516 27 11.8174 27 15ZM15 29.6667C23.1 29.6667 29.6667 23.1 29.6667 15C29.6667 6.9 23.1 0.333336 15 0.333336C6.89999 0.333336 0.333324 6.9 0.333324 15C0.333324 23.1 6.89999 29.6667 15 29.6667ZM11.3907 20.724C11.1478 20.9755 11.0134 21.3123 11.0164 21.6619C11.0195 22.0115 11.1597 22.3459 11.4069 22.5931C11.6541 22.8403 11.9885 22.9805 12.3381 22.9836C12.6877 22.9866 13.0245 22.8522 13.276 22.6093L19.9427 15.9427C20.1926 15.6926 20.333 15.3536 20.333 15C20.333 14.6465 20.1926 14.3074 19.9427 14.0573L13.276 7.39067C13.0245 7.14779 12.6877 7.0134 12.3381 7.01644C11.9885 7.01947 11.6541 7.1597 11.4069 7.40691C11.1597 7.65412 11.0195 7.98854 11.0164 8.33813C11.0134 8.68773 11.1478 9.02453 11.3907 9.276L17.1147 15L11.3907 20.724Z" fill="#FFF6E3"/>
</svg>
