<svg width="12" height="15" viewBox="0 0 12 15" fill="none" xmlns="http://www.w3.org/2000/svg">
<path d="M12 11.6666V12.3333H0V11.6666L1.33333 10.3333V6.33331C1.33333 4.26665 2.68667 2.44665 4.66667 1.85998V1.66665C4.66667 1.31302 4.80714 0.973886 5.05719 0.723837C5.30724 0.473789 5.64638 0.333313 6 0.333313C6.35362 0.333313 6.69276 0.473789 6.94281 0.723837C7.19286 0.973886 7.33333 1.31302 7.33333 1.66665V1.85998C9.31333 2.44665 10.6667 4.26665 10.6667 6.33331V10.3333L12 11.6666ZM7.33333 13C7.33333 13.3536 7.19286 13.6927 6.94281 13.9428C6.69276 14.1928 6.35362 14.3333 6 14.3333C5.64638 14.3333 5.30724 14.1928 5.05719 13.9428C4.80714 13.6927 4.66667 13.3536 4.66667 13" fill="#D4A017"/>
</svg>
