<svg width="16" height="16" viewBox="0 0 16 16" fill="none" xmlns="http://www.w3.org/2000/svg">
<path d="M7.99992 14.6667C4.32659 14.6667 1.33325 11.6734 1.33325 8.00004C1.33325 4.32671 4.32659 1.33337 7.99992 1.33337C11.6733 1.33337 14.6666 4.02671 14.6666 7.33337C14.6666 9.54004 12.8733 11.3334 10.6666 11.3334H9.48658C9.29992 11.3334 9.15325 11.48 9.15325 11.6667C9.15325 11.7467 9.18658 11.82 9.23992 11.8867C9.51325 12.2 9.66658 12.5934 9.66658 13C9.66658 13.4421 9.49099 13.866 9.17843 14.1786C8.86587 14.4911 8.44195 14.6667 7.99992 14.6667ZM7.99992 2.66671C5.05992 2.66671 2.66659 5.06004 2.66659 8.00004C2.66659 10.94 5.05992 13.3334 7.99992 13.3334C8.18658 13.3334 8.33325 13.1867 8.33325 13C8.33118 12.9136 8.29805 12.8307 8.23992 12.7667C7.96658 12.46 7.81992 12.0667 7.81992 11.6667C7.81992 11.2247 7.99551 10.8008 8.30807 10.4882C8.62063 10.1756 9.04456 10 9.48658 10H10.6666C12.1399 10 13.3333 8.80671 13.3333 7.33337C13.3333 4.76004 10.9399 2.66671 7.99992 2.66671Z" fill="#D4A017"/>
<path d="M4.33325 8.66663C4.88554 8.66663 5.33325 8.21891 5.33325 7.66663C5.33325 7.11434 4.88554 6.66663 4.33325 6.66663C3.78097 6.66663 3.33325 7.11434 3.33325 7.66663C3.33325 8.21891 3.78097 8.66663 4.33325 8.66663Z" fill="#E8383B"/>
<path d="M6.33325 6C6.88554 6 7.33325 5.55228 7.33325 5C7.33325 4.44772 6.88554 4 6.33325 4C5.78097 4 5.33325 4.44772 5.33325 5C5.33325 5.55228 5.78097 6 6.33325 6Z" fill="#17D43A"/>
<path d="M9.66675 6C10.219 6 10.6667 5.55228 10.6667 5C10.6667 4.44772 10.219 4 9.66675 4C9.11446 4 8.66675 4.44772 8.66675 5C8.66675 5.55228 9.11446 6 9.66675 6Z" fill="#94C1E6"/>
<path d="M11.6667 8.66663C12.219 8.66663 12.6667 8.21891 12.6667 7.66663C12.6667 7.11434 12.219 6.66663 11.6667 6.66663C11.1145 6.66663 10.6667 7.11434 10.6667 7.66663C10.6667 8.21891 11.1145 8.66663 11.6667 8.66663Z" fill="#A34AAE"/>
</svg>
