<svg width="22" height="18" viewBox="0 0 22 18" fill="none" xmlns="http://www.w3.org/2000/svg">
<path d="M14.5 8C14.5 7.54037 14.4095 7.08525 14.2336 6.66061C14.0577 6.23597 13.7999 5.85013 13.4749 5.52513C13.1499 5.20012 12.764 4.94231 12.3394 4.76642C11.9148 4.59053 11.4596 4.5 11 4.5C10.5404 4.5 10.0852 4.59053 9.66061 4.76642C9.23597 4.94231 8.85013 5.20012 8.52513 5.52513C8.20012 5.85013 7.94231 6.23597 7.76642 6.66061C7.59053 7.08525 7.5 7.54037 7.5 8C7.5 8.92826 7.86875 9.8185 8.52513 10.4749C9.1815 11.1313 10.0717 11.5 11 11.5C11.9283 11.5 12.8185 11.1313 13.4749 10.4749C14.1313 9.8185 14.5 8.92826 14.5 8Z" stroke="#201F1D" stroke-width="1.5" stroke-linecap="round" stroke-linejoin="round"/>
<path d="M14.483 8.35C14.8057 8.44933 15.1447 8.49933 15.5 8.5M15.5 8.5C16.1773 8.49989 16.84 8.30328 17.4077 7.934C17.9755 7.56472 18.4239 7.03864 18.6986 6.41957C18.9733 5.80049 19.0625 5.115 18.9554 4.44624C18.8482 3.77748 18.5493 3.15418 18.0949 2.65193C17.6405 2.14967 17.0502 1.79004 16.3955 1.61664C15.7408 1.44325 15.0498 1.46354 14.4064 1.67506C13.763 1.88657 13.1948 2.28023 12.7706 2.80828C12.3465 3.33634 12.0847 3.97611 12.017 4.65M15.5 8.5C18.538 8.5 21 10.739 21 13.5M9.98298 4.65C9.91069 3.93242 9.61849 3.2547 9.14635 2.70952C8.6742 2.16434 8.04516 1.77832 7.34527 1.60427C6.64538 1.43022 5.9088 1.47663 5.23629 1.73716C4.56378 1.99769 3.98817 2.4596 3.58819 3.05974C3.18821 3.65987 2.98339 4.36891 3.00174 5.08989C3.0201 5.81086 3.26073 6.50857 3.69072 7.08757C4.12072 7.66658 4.71908 8.09861 5.40398 8.32459C6.08887 8.55056 6.82685 8.55943 7.51698 8.35M16.5 16.5C16.5 13.739 14.038 11.5 11 11.5C7.96198 11.5 5.49998 13.739 5.49998 16.5" stroke="#201F1D" stroke-width="1.5" stroke-linecap="round" stroke-linejoin="round"/>
<path d="M6.5 8.5C3.462 8.5 1 10.739 1 13.5" stroke="#201F1D" stroke-width="1.5" stroke-linecap="round" stroke-linejoin="round"/>
</svg>
