<svg width="14" height="14" viewBox="0 0 14 14" fill="none" xmlns="http://www.w3.org/2000/svg">
<path d="M6.6 11.1073L11.5307 6.17664C10.7012 5.83013 9.94783 5.32411 9.31334 4.68731C8.67623 4.05267 8.16998 3.29908 7.82334 2.46931L2.89267 7.39998C2.508 7.78464 2.31534 7.97731 2.15 8.18931C1.95493 8.43963 1.78751 8.71031 1.65067 8.99664C1.53534 9.23931 1.44934 9.49798 1.27734 10.014L0.369336 12.736C0.327545 12.8606 0.321345 12.9944 0.351432 13.1224C0.381519 13.2503 0.4467 13.3674 0.53965 13.4603C0.6326 13.5533 0.749633 13.6185 0.877594 13.6485C1.00556 13.6786 1.13937 13.6724 1.264 13.6306L3.986 12.7226C4.50267 12.5506 4.76067 12.4646 5.00334 12.3493C5.29089 12.2124 5.56 12.046 5.81067 11.85C6.02267 11.6846 6.21534 11.492 6.6 11.1073ZM12.8987 4.80864C13.3903 4.31702 13.6665 3.65024 13.6665 2.95498C13.6665 2.25972 13.3903 1.59293 12.8987 1.10131C12.407 0.609687 11.7403 0.333496 11.045 0.333496C10.3497 0.333496 9.68296 0.609687 9.19134 1.10131L8.6 1.69264L8.62534 1.76664C8.91666 2.6005 9.39354 3.3573 10.02 3.97998C10.6613 4.62519 11.4446 5.11147 12.3073 5.39998L12.8987 4.80864Z" fill="#E09A00"/>
</svg>
