<svg width="18" height="16" viewBox="0 0 18 16" fill="none" xmlns="http://www.w3.org/2000/svg">
<path d="M2.66671 14.6667V1.33334C2.66671 0.95556 2.53871 0.639116 2.28271 0.384005C2.02671 0.128894 1.71026 0.000893487 1.33337 4.5977e-06C0.956484 -0.000884291 0.639597 0.127116 0.382708 0.384005C0.125818 0.640894 -0.00173759 0.957338 4.00543e-05 1.33334V14.6667C4.00543e-05 15.0444 0.12804 15.3613 0.384041 15.6173C0.640039 15.8733 0.956484 16.0009 1.33337 16C1.71026 15.9991 2.02671 15.8711 2.28271 15.616C2.53871 15.3609 2.66671 15.0444 2.66671 14.6667ZM17.3334 13.5V2.5C17.3334 2.1 17.2 1.77778 16.9334 1.53334C16.6667 1.28889 16.3556 1.16667 16 1.16667C15.8889 1.16667 15.7667 1.17778 15.6334 1.2C15.5 1.22223 15.3778 1.27778 15.2667 1.36667L7.00004 6.9C6.80004 7.03334 6.64982 7.19467 6.54937 7.384C6.44893 7.57334 6.39915 7.77867 6.40004 8C6.40093 8.22134 6.45071 8.42712 6.54937 8.61734C6.64804 8.80756 6.79826 8.96845 7.00004 9.1L15.2667 14.6333C15.3778 14.7222 15.5 14.7778 15.6334 14.8C15.7667 14.8222 15.8889 14.8333 16 14.8333C16.3556 14.8333 16.6667 14.7111 16.9334 14.4667C17.2 14.2222 17.3334 13.9 17.3334 13.5Z" fill="#D4A017"/>
</svg>
