<svg width="18" height="16" viewBox="0 0 18 16" fill="none" xmlns="http://www.w3.org/2000/svg">
<path d="M14.6667 14.6667V1.33334C14.6667 0.95556 14.7947 0.639116 15.0507 0.384005C15.3067 0.128894 15.6231 0.000893487 16 4.5977e-06C16.3769 -0.000884291 16.6938 0.127116 16.9507 0.384005C17.2076 0.640894 17.3351 0.957338 17.3333 1.33334V14.6667C17.3333 15.0444 17.2053 15.3613 16.9493 15.6173C16.6933 15.8733 16.3769 16.0009 16 16C15.6231 15.9991 15.3067 15.8711 15.0507 15.616C14.7947 15.3609 14.6667 15.0444 14.6667 14.6667ZM0 13.5V2.5C0 2.1 0.133334 1.77778 0.4 1.53334C0.666667 1.28889 0.977778 1.16667 1.33333 1.16667C1.44444 1.16667 1.56667 1.17778 1.7 1.2C1.83333 1.22223 1.95556 1.27778 2.06667 1.36667L10.3333 6.9C10.5333 7.03334 10.6836 7.19467 10.784 7.384C10.8844 7.57334 10.9342 7.77867 10.9333 8C10.9324 8.22134 10.8827 8.42712 10.784 8.61734C10.6853 8.80756 10.5351 8.96845 10.3333 9.1L2.06667 14.6333C1.95556 14.7222 1.83333 14.7778 1.7 14.8C1.56667 14.8222 1.44444 14.8333 1.33333 14.8333C0.977778 14.8333 0.666667 14.7111 0.4 14.4667C0.133334 14.2222 0 13.9 0 13.5Z" fill="#D4A017"/>
</svg>
