<svg width="29" height="26" viewBox="0 0 29 26" fill="none" xmlns="http://www.w3.org/2000/svg">
<path d="M27.7 8.33342L6.57999 24.3334V18.0721M1.29999 8.33342L22.42 24.3334V18.0721M24.5953 4.24942L23.7255 2.85875C23.245 2.08942 23.0047 1.70408 22.6893 1.66942C22.3751 1.63342 22.0227 1.99875 21.3191 2.72942C19.0461 5.08942 16.773 4.74008 14.5 8.98408C12.2269 4.74008 9.95391 5.08942 7.68087 2.72942C6.97731 1.99875 6.62487 1.63342 6.31071 1.66942C5.99523 1.70408 5.75499 2.08942 5.27451 2.85875L4.40595 4.24942C4.06935 4.78542 3.90171 5.05475 3.94791 5.33742C3.99279 5.62008 4.23435 5.81342 4.71879 6.20008L12.879 12.7308C13.6591 13.3548 14.0499 13.6668 14.5 13.6668C14.9501 13.6668 15.3408 13.3548 16.1209 12.7308L24.2812 6.20008C24.7656 5.81342 25.0072 5.62008 25.0521 5.33742C25.0983 5.05475 24.9306 4.78542 24.5953 4.24942Z" stroke="#201F1D" stroke-width="1.5" stroke-linecap="round" stroke-linejoin="round"/>
</svg>
