<svg width="10" height="14" viewBox="0 0 10 14" fill="none" xmlns="http://www.w3.org/2000/svg">
<path d="M1 3.13333C1 2.38667 1 2.01333 1.14533 1.728C1.27316 1.47713 1.47713 1.27316 1.728 1.14533C2.01333 1 2.38667 1 3.13333 1H6.86667C7.61333 1 7.98667 1 8.272 1.14533C8.52287 1.27316 8.72684 1.47713 8.85467 1.728C9 2.01333 9 2.38667 9 3.13333V12.0033C9 12.3273 9 12.4893 8.93267 12.578C8.90357 12.6166 8.86644 12.6483 8.82385 12.6711C8.78126 12.6939 8.73422 12.7072 8.686 12.71C8.57467 12.7167 8.44 12.6267 8.17067 12.4473L5 10.3333L1.82933 12.4467C1.56 12.6267 1.42533 12.7167 1.31333 12.71C1.26522 12.7071 1.21832 12.6938 1.17585 12.671C1.13338 12.6482 1.09636 12.6165 1.06733 12.578C1 12.4893 1 12.3273 1 12.0033V3.13333Z" stroke="#888888" stroke-width="0.666667" stroke-linecap="round" stroke-linejoin="round"/>
</svg>
