<svg width="21" height="18" viewBox="0 0 21 18" fill="none" xmlns="http://www.w3.org/2000/svg">
<path d="M6.5 4H3.5C2.96957 4 2.46086 4.21071 2.08579 4.58579C1.71071 4.96086 1.5 5.46957 1.5 6V15C1.5 15.5304 1.71071 16.0391 2.08579 16.4142C2.46086 16.7893 2.96957 17 3.5 17H17.5C18.0304 17 18.5391 16.7893 18.9142 16.4142C19.2893 16.0391 19.5 15.5304 19.5 15V6C19.5 5.46957 19.2893 4.96086 18.9142 4.58579C18.5391 4.21071 18.0304 4 17.5 4H14.5M13.5 8L10.5 11M10.5 11L7.5 8M10.5 11V1" stroke="#FFF8E9" stroke-width="2" stroke-linecap="round" stroke-linejoin="round"/>
</svg>
