<svg width="9" height="13" viewBox="0 0 9 13" fill="none" xmlns="http://www.w3.org/2000/svg">
<path d="M0.5 2.63333C0.5 1.88667 0.5 1.51333 0.645333 1.228C0.773163 0.977128 0.977128 0.773163 1.228 0.645333C1.51333 0.5 1.88667 0.5 2.63333 0.5H6.36667C7.11333 0.5 7.48667 0.5 7.772 0.645333C8.02287 0.773163 8.22684 0.977128 8.35467 1.228C8.5 1.51333 8.5 1.88667 8.5 2.63333V11.5033C8.5 11.8273 8.5 11.9893 8.43267 12.078C8.40357 12.1166 8.36644 12.1483 8.32385 12.1711C8.28126 12.1939 8.23422 12.2072 8.186 12.21C8.07467 12.2167 7.94 12.1267 7.67067 11.9473L4.5 9.83333L1.32933 11.9467C1.06 12.1267 0.925333 12.2167 0.813333 12.21C0.765224 12.2071 0.718318 12.1938 0.675848 12.171C0.633379 12.1482 0.596356 12.1165 0.567333 12.078C0.5 11.9893 0.5 11.8273 0.5 11.5033V2.63333Z" fill="#888888" stroke="#888888" stroke-width="0.666667" stroke-linecap="round" stroke-linejoin="round"/>
</svg>
