<svg width="13" height="13" viewBox="0 0 13 13" fill="none" xmlns="http://www.w3.org/2000/svg">
<path fill-rule="evenodd" clip-rule="evenodd" d="M7.33382 0.130432C8.23742 0.130509 9.12791 0.346675 9.93098 0.760895C10.734 1.17511 11.4264 1.77538 11.9503 2.5116C12.4742 3.24783 12.8145 4.09866 12.9427 4.99313C13.0709 5.88759 12.9833 6.79975 12.6873 7.65349C12.3913 8.50723 11.8954 9.2778 11.241 9.90092C10.5866 10.524 9.79268 10.9816 8.92547 11.2355C8.05827 11.4894 7.14292 11.5322 6.2558 11.3604C5.36868 11.1886 4.53552 10.8071 3.82582 10.2478L1.39115 12.6824C1.26541 12.8039 1.09701 12.8711 0.922215 12.8695C0.747416 12.868 0.580208 12.7979 0.456602 12.6743C0.332997 12.5507 0.262885 12.3835 0.261366 12.2087C0.259848 12.0339 0.327044 11.8655 0.448483 11.7398L2.88315 9.3051C2.22448 8.46951 1.81437 7.46537 1.69975 6.40758C1.58512 5.3498 1.77062 4.28111 2.235 3.32383C2.69938 2.36654 3.42389 1.55934 4.32561 0.994586C5.22734 0.429836 6.26984 0.130361 7.33382 0.130432ZM11.6671 5.7971C11.6671 4.64783 11.2106 3.54563 10.3979 2.73297C9.58529 1.92031 8.48309 1.46377 7.33382 1.46377C6.18454 1.46377 5.08234 1.92031 4.26969 2.73297C3.45703 3.54563 3.00048 4.64783 3.00048 5.7971C3.00048 6.94637 3.45703 8.04857 4.26969 8.86123C5.08234 9.67389 6.18454 10.1304 7.33382 10.1304C8.48309 10.1304 9.58529 9.67389 10.3979 8.86123C11.2106 8.04857 11.6671 6.94637 11.6671 5.7971Z" fill="#888888"/>
</svg>
