<svg width="21" height="23" viewBox="0 0 21 23" fill="none" xmlns="http://www.w3.org/2000/svg">
<path fill-rule="evenodd" clip-rule="evenodd" d="M10.5 7.75C9.50544 7.75 8.55161 8.14509 7.84835 8.84835C7.14509 9.55161 6.75 10.5054 6.75 11.5C6.75 12.4946 7.14509 13.4484 7.84835 14.1517C8.55161 14.8549 9.50544 15.25 10.5 15.25C11.4946 15.25 12.4484 14.8549 13.1517 14.1517C13.8549 13.4484 14.25 12.4946 14.25 11.5C14.25 10.5054 13.8549 9.55161 13.1517 8.84835C12.4484 8.14509 11.4946 7.75 10.5 7.75ZM8.25 11.5C8.25 10.9033 8.48705 10.331 8.90901 9.90901C9.33097 9.48705 9.90326 9.25 10.5 9.25C11.0967 9.25 11.669 9.48705 12.091 9.90901C12.5129 10.331 12.75 10.9033 12.75 11.5C12.75 12.0967 12.5129 12.669 12.091 13.091C11.669 13.5129 11.0967 13.75 10.5 13.75C9.90326 13.75 9.33097 13.5129 8.90901 13.091C8.48705 12.669 8.25 12.0967 8.25 11.5Z" fill="#888888"/>
<path fill-rule="evenodd" clip-rule="evenodd" d="M10.475 0.75C10.03 0.75 9.65902 0.75 9.35502 0.77C9.04423 0.782516 8.7377 0.846729 8.44802 0.96C8.11427 1.09809 7.81099 1.30057 7.55551 1.55589C7.30002 1.8112 7.09733 2.11434 6.95902 2.448C6.81402 2.798 6.77502 3.168 6.75902 3.57C6.75723 3.71698 6.71823 3.86112 6.64566 3.98895C6.57309 4.11678 6.46931 4.22414 6.34402 4.301C6.21484 4.37132 6.06995 4.40775 5.92287 4.40687C5.7758 4.406 5.63135 4.36785 5.50302 4.296C5.14702 4.108 4.80702 3.957 4.43102 3.907C4.07296 3.8599 3.70914 3.88379 3.36031 3.9773C3.01149 4.07081 2.6845 4.23212 2.39802 4.452C2.15541 4.64648 1.94689 4.88001 1.78102 5.143C1.61102 5.397 1.42502 5.718 1.20302 6.103L1.17802 6.147C0.955019 6.532 0.770019 6.853 0.636019 7.127C0.496019 7.413 0.386019 7.695 0.346019 8.007C0.250619 8.72999 0.446299 9.46127 0.890019 10.04C1.12102 10.341 1.42202 10.56 1.76202 10.774C1.88865 10.8491 1.99416 10.9551 2.06867 11.082C2.14317 11.209 2.18424 11.3528 2.18802 11.5C2.18424 11.6472 2.14317 11.791 2.06867 11.918C1.99416 12.0449 1.88865 12.1509 1.76202 12.226C1.42202 12.44 1.12202 12.659 0.890019 12.96C0.670136 13.2465 0.508833 13.5735 0.415322 13.9223C0.321811 14.2711 0.297922 14.6349 0.345019 14.993C0.386019 15.305 0.495019 15.587 0.635019 15.873C0.770019 16.147 0.955019 16.468 1.17802 16.853L1.20302 16.897C1.42502 17.282 1.61102 17.603 1.78102 17.857C1.95802 18.12 2.14802 18.357 2.39802 18.547C2.68443 18.7671 3.01138 18.9285 3.36021 19.0222C3.70903 19.1159 4.0729 19.14 4.43102 19.093C4.80702 19.043 5.14702 18.893 5.50302 18.704C5.63123 18.6323 5.7755 18.5943 5.92238 18.5934C6.06926 18.5925 6.21397 18.6289 6.34302 18.699C6.46933 18.7749 6.57402 18.882 6.64704 19.01C6.72007 19.138 6.75897 19.2826 6.76002 19.43C6.77502 19.832 6.81402 20.202 6.96002 20.552C7.09811 20.8857 7.30059 21.189 7.55591 21.4445C7.81122 21.7 8.11436 21.9027 8.44802 22.041C8.73802 22.161 9.03802 22.208 9.35502 22.229C9.65902 22.25 10.03 22.25 10.475 22.25H10.525C10.97 22.25 11.341 22.25 11.645 22.23C11.963 22.208 12.262 22.161 12.552 22.04C12.8858 21.9019 13.189 21.6994 13.4445 21.4441C13.7 21.1888 13.9027 20.8857 14.041 20.552C14.186 20.202 14.225 19.832 14.241 19.43C14.2426 19.2828 14.2816 19.1385 14.3541 19.0105C14.4267 18.8825 14.5306 18.775 14.656 18.698C14.7853 18.6278 14.9302 18.5916 15.0773 18.5926C15.2244 18.5937 15.3688 18.632 15.497 18.704C15.853 18.892 16.193 19.043 16.569 19.092C17.292 19.1874 18.0233 18.9917 18.602 18.548C18.852 18.356 19.042 18.12 19.219 17.857C19.389 17.603 19.575 17.282 19.797 16.897L19.822 16.853C20.045 16.468 20.23 16.147 20.364 15.873C20.504 15.587 20.614 15.304 20.654 14.993C20.7494 14.27 20.5537 13.5387 20.11 12.96C19.879 12.659 19.578 12.44 19.238 12.226C19.1114 12.1509 19.0059 12.0449 18.9314 11.918C18.8569 11.791 18.8158 11.6472 18.812 11.5C18.812 11.222 18.964 10.946 19.238 10.774C19.578 10.56 19.878 10.341 20.11 10.04C20.3299 9.75352 20.4912 9.42653 20.5847 9.0777C20.6782 8.72888 20.7021 8.36506 20.655 8.007C20.6079 7.6996 20.5099 7.40219 20.365 7.127C20.1942 6.79478 20.0131 6.46795 19.822 6.147L19.797 6.103C19.6144 5.77708 19.4216 5.45692 19.219 5.143C19.0531 4.88036 18.8445 4.64718 18.602 4.453C18.3156 4.23294 17.9887 4.07146 17.6398 3.97778C17.291 3.88409 16.9271 3.86004 16.569 3.907C16.193 3.957 15.853 4.107 15.497 4.296C15.3688 4.36767 15.2245 4.40572 15.0777 4.4066C14.9308 4.40747 14.7861 4.37114 14.657 4.301C14.5314 4.22438 14.4272 4.11712 14.3542 3.98928C14.2813 3.86143 14.242 3.71717 14.24 3.57C14.225 3.168 14.186 2.798 14.04 2.448C13.9019 2.11425 13.6994 1.81097 13.4441 1.55549C13.1888 1.3 12.8857 1.09731 12.552 0.959C12.262 0.839 11.962 0.792 11.645 0.771C11.341 0.75 10.97 0.75 10.525 0.75H10.475ZM9.02202 2.345C9.09902 2.313 9.21602 2.284 9.45702 2.267C9.70402 2.25 10.024 2.25 10.5 2.25C10.976 2.25 11.296 2.25 11.543 2.267C11.784 2.284 11.901 2.313 11.978 2.345C12.285 2.472 12.528 2.715 12.655 3.022C12.695 3.118 12.728 3.269 12.741 3.626C12.771 4.418 13.18 5.181 13.906 5.6C14.632 6.019 15.497 5.992 16.198 5.622C16.514 5.455 16.661 5.408 16.765 5.395C17.0936 5.35158 17.4259 5.44043 17.689 5.642C17.755 5.693 17.839 5.78 17.974 5.98C18.113 6.186 18.273 6.463 18.511 6.875C18.749 7.287 18.908 7.565 19.017 7.787C19.124 8.004 19.157 8.12 19.167 8.203C19.2104 8.53157 19.1216 8.86392 18.92 9.127C18.856 9.21 18.742 9.314 18.44 9.504C17.768 9.926 17.312 10.662 17.312 11.5C17.312 12.338 17.768 13.074 18.44 13.496C18.742 13.686 18.856 13.79 18.92 13.873C19.122 14.136 19.21 14.468 19.167 14.797C19.157 14.88 19.123 14.997 19.017 15.213C18.908 15.436 18.749 15.713 18.511 16.125C18.273 16.537 18.112 16.814 17.974 17.02C17.839 17.22 17.755 17.307 17.689 17.358C17.4259 17.5596 17.0936 17.6484 16.765 17.605C16.661 17.592 16.515 17.545 16.198 17.378C15.498 17.008 14.632 16.98 13.906 17.399C13.18 17.818 12.771 18.582 12.741 19.374C12.728 19.731 12.695 19.882 12.655 19.978C12.5922 20.1298 12.5001 20.2677 12.3839 20.3839C12.2677 20.5001 12.1298 20.5922 11.978 20.655C11.901 20.687 11.784 20.716 11.543 20.733C11.296 20.75 10.976 20.75 10.5 20.75C10.024 20.75 9.70402 20.75 9.45702 20.733C9.21602 20.716 9.09902 20.687 9.02202 20.655C8.87022 20.5922 8.7323 20.5001 8.61613 20.3839C8.49997 20.2677 8.40784 20.1298 8.34502 19.978C8.30502 19.882 8.27202 19.731 8.25902 19.374C8.22902 18.582 7.82002 17.819 7.09402 17.4C6.36802 16.981 5.50302 17.008 4.80202 17.378C4.48602 17.545 4.33902 17.592 4.23502 17.605C3.90645 17.6484 3.5741 17.5596 3.31102 17.358C3.24502 17.307 3.16102 17.22 3.02602 17.02C2.8379 16.7272 2.65882 16.4288 2.48902 16.125C2.25102 15.713 2.09202 15.435 1.98302 15.213C1.87602 14.996 1.84302 14.88 1.83302 14.797C1.7896 14.4684 1.87845 14.1361 2.08002 13.873C2.14402 13.79 2.25802 13.686 2.56002 13.496C3.23202 13.074 3.68802 12.338 3.68802 11.5C3.68802 10.662 3.23202 9.926 2.56002 9.504C2.25802 9.314 2.14402 9.21 2.08002 9.127C1.87845 8.86392 1.7896 8.53157 1.83302 8.203C1.84302 8.12 1.87702 8.003 1.98302 7.787C2.09202 7.564 2.25102 7.287 2.48902 6.875C2.72702 6.463 2.88802 6.186 3.02602 5.98C3.16102 5.78 3.24502 5.693 3.31102 5.642C3.5741 5.44043 3.90645 5.35158 4.23502 5.395C4.33902 5.408 4.48502 5.455 4.80202 5.622C5.50202 5.992 6.36802 6.02 7.09402 5.6C7.82002 5.181 8.22902 4.418 8.25902 3.626C8.27202 3.269 8.30502 3.118 8.34502 3.022C8.47202 2.715 8.71502 2.472 9.02202 2.345Z" fill="#888888"/>
</svg>
