<svg width="24" height="24" viewBox="0 0 24 24" fill="none" xmlns="http://www.w3.org/2000/svg">
<path d="M10 3.5V3M3.5 10H3M14.596 5.404L14.95 5.05M5.404 5.404L5.05 5.05M9 13.036C9.74795 13.1441 10.4408 13.4914 10.975 14.026M12.645 7C12.0249 6.45309 11.2506 6.11178 10.4285 6.02303C9.60648 5.93427 8.77714 6.10244 8.0546 6.50439C7.33206 6.90633 6.75183 7.52231 6.39374 8.26756C6.03566 9.01282 5.91732 9.85073 6.055 10.666M5 16.5C5 17.4283 5.36875 18.3185 6.02513 18.9749C6.6815 19.6313 7.57174 20 8.5 20H18.25C18.915 19.9998 19.5575 19.7586 20.0583 19.3211C20.5592 18.8836 20.8845 18.2794 20.9741 17.6204C21.0637 16.9614 20.9114 16.2923 20.5455 15.737C20.1796 15.1816 19.6249 14.7777 18.984 14.6C18.8946 13.4785 18.4297 12.42 17.6643 11.5954C16.8989 10.7709 15.8778 10.2286 14.7661 10.0562C13.6543 9.88377 12.5169 10.0913 11.5378 10.6453C10.5586 11.1993 9.79484 12.0673 9.37 13.109C8.85301 12.9771 8.31274 12.9651 7.79038 13.0737C7.26803 13.1824 6.77738 13.4089 6.35586 13.736C5.93435 14.0631 5.59309 14.4821 5.35811 14.9611C5.12314 15.4401 5.00065 15.9665 5 16.5Z" stroke="#0C4A6E" stroke-width="2" stroke-linecap="round" stroke-linejoin="round"/>
</svg>
