<svg width="16" height="16" viewBox="0 0 16 16" fill="none" xmlns="http://www.w3.org/2000/svg">
<path d="M8 13.3333C8.17681 13.3333 8.34638 13.4036 8.47141 13.5286C8.59643 13.6536 8.66667 13.8232 8.66667 14V15.3333C8.66667 15.5101 8.59643 15.6797 8.47141 15.8047C8.34638 15.9298 8.17681 16 8 16C7.82319 16 7.65362 15.9298 7.5286 15.8047C7.40357 15.6797 7.33333 15.5101 7.33333 15.3333V14C7.33333 13.8232 7.40357 13.6536 7.5286 13.5286C7.65362 13.4036 7.82319 13.3333 8 13.3333ZM3.286 11.7713C3.3475 11.7077 3.42106 11.6569 3.5024 11.6219C3.58373 11.587 3.67121 11.5686 3.75973 11.5678C3.84825 11.5671 3.93604 11.5839 4.01797 11.6175C4.0999 11.651 4.17434 11.7005 4.23693 11.7631C4.29953 11.8257 4.34903 11.9001 4.38255 11.982C4.41607 12.064 4.43294 12.1517 4.43217 12.2403C4.4314 12.3288 4.41301 12.4163 4.37807 12.4976C4.34313 12.5789 4.29234 12.6525 4.22867 12.714L3.286 13.6567C3.16027 13.7781 2.99186 13.8453 2.81707 13.8438C2.64227 13.8423 2.47506 13.7722 2.35145 13.6485C2.22785 13.5249 2.15774 13.3577 2.15622 13.1829C2.1547 13.0081 2.22189 12.8397 2.34333 12.714L3.286 11.7713ZM11.7713 11.7713C11.8964 11.6464 12.0659 11.5761 12.2427 11.5761C12.4194 11.5761 12.589 11.6464 12.714 11.7713L13.6567 12.714C13.7781 12.8397 13.8453 13.0081 13.8438 13.1829C13.8423 13.3577 13.7722 13.5249 13.6485 13.6485C13.5249 13.7722 13.3577 13.8423 13.1829 13.8438C13.0081 13.8453 12.8397 13.7781 12.714 13.6567L11.7713 12.714C11.6464 12.589 11.5761 12.4194 11.5761 12.2427C11.5761 12.0659 11.6464 11.8964 11.7713 11.7713ZM8 4C9.06087 4 10.0783 4.42143 10.8284 5.17157C11.5786 5.92172 12 6.93913 12 8C12 9.06087 11.5786 10.0783 10.8284 10.8284C10.0783 11.5786 9.06087 12 8 12C6.93913 12 5.92172 11.5786 5.17157 10.8284C4.42143 10.0783 4 9.06087 4 8C4 6.93913 4.42143 5.92172 5.17157 5.17157C5.92172 4.42143 6.93913 4 8 4ZM2 7.33333C2.17681 7.33333 2.34638 7.40357 2.4714 7.5286C2.59643 7.65362 2.66667 7.82319 2.66667 8C2.66667 8.17681 2.59643 8.34638 2.4714 8.47141C2.34638 8.59643 2.17681 8.66667 2 8.66667H0.666667C0.489856 8.66667 0.320286 8.59643 0.195262 8.47141C0.0702379 8.34638 0 8.17681 0 8C0 7.82319 0.0702379 7.65362 0.195262 7.5286C0.320286 7.40357 0.489856 7.33333 0.666667 7.33333H2ZM15.3333 7.33333C15.5101 7.33333 15.6797 7.40357 15.8047 7.5286C15.9298 7.65362 16 7.82319 16 8C16 8.17681 15.9298 8.34638 15.8047 8.47141C15.6797 8.59643 15.5101 8.66667 15.3333 8.66667H14C13.8232 8.66667 13.6536 8.59643 13.5286 8.47141C13.4036 8.34638 13.3333 8.17681 13.3333 8C13.3333 7.82319 13.4036 7.65362 13.5286 7.5286C13.6536 7.40357 13.8232 7.33333 14 7.33333H15.3333ZM2.34333 2.34333C2.46835 2.21835 2.63789 2.14814 2.81467 2.14814C2.99144 2.14814 3.16098 2.21835 3.286 2.34333L4.22867 3.286C4.29234 3.3475 4.34313 3.42106 4.37807 3.5024C4.41301 3.58373 4.4314 3.67121 4.43217 3.75973C4.43294 3.84825 4.41607 3.93604 4.38255 4.01797C4.34903 4.0999 4.29953 4.17434 4.23693 4.23693C4.17434 4.29953 4.0999 4.34903 4.01797 4.38255C3.93604 4.41607 3.84825 4.43294 3.75973 4.43217C3.67121 4.4314 3.58373 4.41301 3.5024 4.37807C3.42106 4.34313 3.3475 4.29234 3.286 4.22867L2.34333 3.286C2.21835 3.16098 2.14814 2.99144 2.14814 2.81467C2.14814 2.63789 2.21835 2.46835 2.34333 2.34333ZM12.714 2.34333C12.8397 2.22189 13.0081 2.1547 13.1829 2.15622C13.3577 2.15774 13.5249 2.22785 13.6485 2.35145C13.7722 2.47506 13.8423 2.64227 13.8438 2.81707C13.8453 2.99186 13.7781 3.16027 13.6567 3.286L12.714 4.22867C12.6525 4.29234 12.5789 4.34313 12.4976 4.37807C12.4163 4.41301 12.3288 4.4314 12.2403 4.43217C12.1517 4.43294 12.064 4.41607 11.982 4.38255C11.9001 4.34903 11.8257 4.29953 11.7631 4.23693C11.7005 4.17434 11.651 4.0999 11.6175 4.01797C11.5839 3.93604 11.5671 3.84825 11.5678 3.75973C11.5686 3.67121 11.587 3.58373 11.6219 3.5024C11.6569 3.42106 11.7077 3.3475 11.7713 3.286L12.714 2.34333ZM8 0C8.17681 0 8.34638 0.0702379 8.47141 0.195262C8.59643 0.320286 8.66667 0.489856 8.66667 0.666667V2C8.66667 2.17681 8.59643 2.34638 8.47141 2.4714C8.34638 2.59643 8.17681 2.66667 8 2.66667C7.82319 2.66667 7.65362 2.59643 7.5286 2.4714C7.40357 2.34638 7.33333 2.17681 7.33333 2V0.666667C7.33333 0.489856 7.40357 0.320286 7.5286 0.195262C7.65362 0.0702379 7.82319 0 8 0Z" fill="#D4A017"/>
</svg>
