<svg width="18" height="16" viewBox="0 0 18 16" fill="none" xmlns="http://www.w3.org/2000/svg">
<path d="M15.6334 2.58337H7.88137L7.13337 0.333374H2.03337C1.09837 0.333374 0.333374 1.00837 0.333374 1.83337V11.5834C0.333374 12.4084 1.09837 13.0834 2.03337 13.0834H7.98337L8.83337 15.3334H15.6334C16.5684 15.3334 17.3334 14.6584 17.3334 13.8334V4.08337C17.3334 3.25837 16.5684 2.58337 15.6334 2.58337ZM4.72787 9.77587C2.81537 9.77587 1.25137 8.40337 1.25137 6.70837C1.25137 5.01337 2.80687 3.64087 4.72787 3.64087C5.61187 3.64087 6.41937 3.91837 7.05687 4.44337L7.11637 4.48837L6.07087 5.37337L6.01987 5.33587C5.77337 5.13337 5.35687 4.89337 4.72787 4.89337C3.61437 4.89337 2.70487 5.71087 2.70487 6.70837C2.70487 7.70587 3.61437 8.52337 4.72787 8.52337C5.89237 8.52337 6.39387 7.87087 6.52987 7.42837H4.65137V6.26587H8.00887L8.01737 6.31837C8.05137 6.47587 8.05987 6.61837 8.05987 6.77587C8.05987 8.53837 6.69137 9.77587 4.72787 9.77587ZM9.40287 7.14337H12.7944C12.7944 7.14337 12.5054 8.12587 11.4684 9.19837C11.0264 8.73337 10.7119 8.27587 10.5079 7.92337H9.66637L9.40287 7.14337ZM10.8649 9.76837L10.4059 10.1659L9.85337 8.49337C10.1339 8.94337 10.4824 9.37837 10.8649 9.76837ZM16.4834 13.8334C16.4834 14.2459 16.1009 14.5834 15.6334 14.5834H9.68337L11.3834 13.0834L10.6949 11.0059L11.4769 10.3159L13.7549 12.3334L14.3754 11.7859L12.0719 9.77587C12.8369 9.00337 13.4319 8.08837 13.7039 7.14337H14.7834V6.36337H11.6894V5.58337H10.8054V6.36337H9.13937L8.13637 3.33337H15.6334C16.1009 3.33337 16.4834 3.67087 16.4834 4.08337V13.8334Z" fill="#E09A00"/>
</svg>
