<svg width="12" height="12" viewBox="0 0 12 12" fill="none" xmlns="http://www.w3.org/2000/svg">
<path d="M0.666656 9.99998C0.666656 9.29274 0.947608 8.61446 1.4477 8.11436C1.9478 7.61426 2.62608 7.33331 3.33332 7.33331H8.66666C9.3739 7.33331 10.0522 7.61426 10.5523 8.11436C11.0524 8.61446 11.3333 9.29274 11.3333 9.99998C11.3333 10.3536 11.1928 10.6927 10.9428 10.9428C10.6928 11.1928 10.3536 11.3333 9.99999 11.3333H1.99999C1.64637 11.3333 1.30723 11.1928 1.05718 10.9428C0.807132 10.6927 0.666656 10.3536 0.666656 9.99998Z" stroke="black" stroke-linejoin="round"/>
<path d="M6 4.66666C7.10457 4.66666 8 3.77123 8 2.66666C8 1.56209 7.10457 0.666656 6 0.666656C4.89543 0.666656 4 1.56209 4 2.66666C4 3.77123 4.89543 4.66666 6 4.66666Z" stroke="black"/>
</svg>
