<svg width="21" height="21" viewBox="0 0 21 21" fill="none" xmlns="http://www.w3.org/2000/svg">
<path d="M4.283 14.617L0 18.899L1.415 20.314L5.697 16.031C7.29026 17.3082 9.272 18.0029 11.314 18C16.282 18 20.314 13.968 20.314 9C20.314 4.032 16.282 0 11.314 0C6.346 0 2.314 4.032 2.314 9C2.31109 11.042 3.00578 13.0237 4.283 14.617ZM6.289 13.875C5.02016 12.5697 4.31145 10.8204 4.314 9C4.314 5.133 7.447 2 11.314 2C15.181 2 18.314 5.133 18.314 9C18.314 12.867 15.181 16 11.314 16C9.49363 16.0025 7.74429 15.2938 6.439 14.025L6.289 13.875ZM15.314 8H7.314V10H15.314V8Z" fill="#D4A017"/>
</svg>
